<svg xmlns="http://www.w3.org/2000/svg" width="1560" height="940" viewBox="0 0 1560 940">
<rect width="1560" height="940" fill="#f5f6f1"/>
<text x="38" y="48" font-size="26" font-weight="700" fill="#17201b">Modelo Logico - Entidades, PK, FK y relaciones</text>
<rect x="50" y="95" width="320" height="170" rx="8" fill="#ffffff" stroke="#23684a" stroke-width="2"/>
<rect x="50" y="95" width="320" height="34" rx="8" fill="#23684a"/>
<text x="62" y="118" font-size="14" font-weight="700" fill="#ffffff">Periodo</text>
<text x="62" y="153" font-size="12" font-weight="400" fill="#17201b">PK Periodo_ID</text>
<text x="62" y="175" font-size="12" font-weight="400" fill="#17201b">UQ Año + Mes</text>
<text x="62" y="197" font-size="12" font-weight="400" fill="#17201b">MesNombre</text>
<text x="62" y="219" font-size="12" font-weight="400" fill="#17201b">Fecha</text>
<rect x="50" y="310" width="320" height="170" rx="8" fill="#ffffff" stroke="#2b7c83" stroke-width="2"/>
<rect x="50" y="310" width="320" height="34" rx="8" fill="#2b7c83"/>
<text x="62" y="333" font-size="14" font-weight="700" fill="#ffffff">Sucursal</text>
<text x="62" y="368" font-size="12" font-weight="400" fill="#17201b">PK Sucursal_ID</text>
<text x="62" y="390" font-size="12" font-weight="400" fill="#17201b">UQ Nombre</text>
<text x="62" y="412" font-size="12" font-weight="400" fill="#17201b">Region</text>
<text x="62" y="434" font-size="12" font-weight="400" fill="#17201b">Estatus</text>
<rect x="50" y="525" width="320" height="190" rx="8" fill="#ffffff" stroke="#c4962e" stroke-width="2"/>
<rect x="50" y="525" width="320" height="34" rx="8" fill="#c4962e"/>
<text x="62" y="548" font-size="14" font-weight="700" fill="#ffffff">Destino</text>
<text x="62" y="583" font-size="12" font-weight="400" fill="#17201b">PK Destino_ID</text>
<text x="62" y="605" font-size="12" font-weight="400" fill="#17201b">UQ Nombre</text>
<text x="62" y="627" font-size="12" font-weight="400" fill="#17201b">Rubro</text>
<text x="62" y="649" font-size="12" font-weight="400" fill="#17201b">TipoOperacion</text>
<rect x="580" y="95" width="360" height="180" rx="8" fill="#ffffff" stroke="#23684a" stroke-width="2"/>
<rect x="580" y="95" width="360" height="34" rx="8" fill="#23684a"/>
<text x="592" y="118" font-size="14" font-weight="700" fill="#ffffff">FactCarteraPrestamo</text>
<text x="592" y="153" font-size="12" font-weight="400" fill="#17201b">PK Cartera_ID</text>
<text x="592" y="175" font-size="12" font-weight="400" fill="#17201b">FK Sucursal_ID</text>
<text x="592" y="197" font-size="12" font-weight="400" fill="#17201b">FK Periodo_ID</text>
<text x="592" y="219" font-size="12" font-weight="400" fill="#17201b">Cantidad, Valor_RD</text>
<rect x="580" y="310" width="360" height="190" rx="8" fill="#ffffff" stroke="#2b7c83" stroke-width="2"/>
<rect x="580" y="310" width="360" height="34" rx="8" fill="#2b7c83"/>
<text x="592" y="333" font-size="14" font-weight="700" fill="#ffffff">FactAreaFinanciada</text>
<text x="592" y="368" font-size="12" font-weight="400" fill="#17201b">PK AreaFinanciada_ID</text>
<text x="592" y="390" font-size="12" font-weight="400" fill="#17201b">FK Sucursal_ID</text>
<text x="592" y="412" font-size="12" font-weight="400" fill="#17201b">FK Periodo_ID</text>
<text x="592" y="434" font-size="12" font-weight="400" fill="#17201b">Tareas, Prestamos, Valor</text>
<rect x="580" y="545" width="360" height="190" rx="8" fill="#ffffff" stroke="#b85b4a" stroke-width="2"/>
<rect x="580" y="545" width="360" height="34" rx="8" fill="#b85b4a"/>
<text x="592" y="568" font-size="14" font-weight="700" fill="#ffffff">FactDesembolsoCobro</text>
<text x="592" y="603" font-size="12" font-weight="400" fill="#17201b">PK DesembolsoCobro_ID</text>
<text x="592" y="625" font-size="12" font-weight="400" fill="#17201b">FK Sucursal_ID</text>
<text x="592" y="647" font-size="12" font-weight="400" fill="#17201b">FK Periodo_ID</text>
<text x="592" y="669" font-size="12" font-weight="400" fill="#17201b">Desembolsos, Cobros</text>
<rect x="1080" y="310" width="360" height="190" rx="8" fill="#ffffff" stroke="#c4962e" stroke-width="2"/>
<rect x="1080" y="310" width="360" height="34" rx="8" fill="#c4962e"/>
<text x="1092" y="333" font-size="14" font-weight="700" fill="#ffffff">FactMontoDestino</text>
<text x="1092" y="368" font-size="12" font-weight="400" fill="#17201b">PK MontoDestino_ID</text>
<text x="1092" y="390" font-size="12" font-weight="400" fill="#17201b">FK Destino_ID</text>
<text x="1092" y="412" font-size="12" font-weight="400" fill="#17201b">FK Periodo_ID</text>
<text x="1092" y="434" font-size="12" font-weight="400" fill="#17201b">Cantidad, Valores, Beneficiados</text>
<g stroke="#738079" stroke-width="2" fill="none">
  <line x1="370" y1="180" x2="580" y2="185"/>
  <line x1="370" y1="180" x2="580" y2="405"/>
  <line x1="370" y1="180" x2="580" y2="640"/>
  <line x1="370" y1="180" x2="1080" y2="405"/>
  <line x1="370" y1="395" x2="580" y2="185"/>
  <line x1="370" y1="395" x2="580" y2="405"/>
  <line x1="370" y1="395" x2="580" y2="640"/>
  <line x1="370" y1="620" x2="1080" y2="405"/>
</g>
</svg>
